<svg xmlns="http://www.w3.org/2000/svg" width="31.051" height="24.151" viewBox="0 0 31.051 24.151">
  <g id="Group_1774" data-name="Group 1774" transform="translate(-685.474 -901.711)">
    <path id="Path_2295" data-name="Path 2295" d="M715.769,902.466a2.5,2.5,0,0,0-1.833-.755H688.062a2.578,2.578,0,0,0-2.588,2.587v18.975a2.578,2.578,0,0,0,2.587,2.588h25.88a2.569,2.569,0,0,0,2.583-2.588V904.3A2.5,2.5,0,0,0,715.769,902.466Zm-1.833,20.807H688.061V904.3h25.875Z" fill="#0e6bb1"/>
    <path id="Path_2296" data-name="Path 2296" d="M696.686,913.786a3.5,3.5,0,1,1,2.426-1.024A3.318,3.318,0,0,1,696.686,913.786Z" fill="#e3000e"/>
    <path id="Path_2297" data-name="Path 2297" d="M691.835,920.686a1.254,1.254,0,0,1-.836-.3.92.92,0,0,1-.35-.728v-1.021a2.832,2.832,0,0,1,1.051-2.21,3.762,3.762,0,0,1,2.561-.916,2.084,2.084,0,0,1,.7.162,5.645,5.645,0,0,0,3.45,0,2.564,2.564,0,0,1,.7-.162,3.76,3.76,0,0,1,2.561.916,2.827,2.827,0,0,1,1.052,2.21v1.025a.918.918,0,0,1-.35.724,1.252,1.252,0,0,1-.836.3Z" fill="#e3000e"/>
    <path id="Path_2298" data-name="Path 2298" d="M704.88,917.236a.464.464,0,0,1-.435-.435v-.862a.416.416,0,0,1,.135-.3.41.41,0,0,1,.3-.135h6.037a.464.464,0,0,1,.435.435v.862a.41.41,0,0,1-.135.3.416.416,0,0,1-.3.135Z" fill="#0e6bb1"/>
    <path id="Path_2299" data-name="Path 2299" d="M704.88,913.786a.464.464,0,0,1-.435-.435v-.862a.416.416,0,0,1,.135-.3.41.41,0,0,1,.3-.135h6.037a.464.464,0,0,1,.435.435v.862a.41.41,0,0,1-.135.3.416.416,0,0,1-.3.135Z" fill="#0e6bb1"/>
    <path id="Path_2300" data-name="Path 2300" d="M704.88,910.336a.464.464,0,0,1-.435-.435v-.862a.416.416,0,0,1,.135-.3.41.41,0,0,1,.3-.135h6.037a.464.464,0,0,1,.435.435v.862a.41.41,0,0,1-.135.3.416.416,0,0,1-.3.135Z" fill="#0e6bb1"/>
  </g>
</svg>
