<svg xmlns="http://www.w3.org/2000/svg" width="30.66" height="27.888" viewBox="0 0 30.66 27.888">
  <g id="Group_1785" data-name="Group 1785" transform="translate(-685.001 -1186.607)">
    <path id="Path_2329" data-name="Path 2329" d="M711.128,1213.166l-.041.015-.043.01a1.633,1.633,0,0,1-.368.043,1.605,1.605,0,0,1-.536-.092,1.344,1.344,0,0,1-.785-.662l-.3-.52a6.253,6.253,0,0,1-1.413,0l-.3.521a1.345,1.345,0,0,1-.783.663,1.628,1.628,0,0,1-.9.049l-.043-.01-.041-.016a7.8,7.8,0,0,1-2.254-1.333,1.33,1.33,0,0,1-.536-.923,1.607,1.607,0,0,1,.162-.915l.016-.03.309-.542a7.117,7.117,0,0,1-.7-1.177h-.625a1.473,1.473,0,0,1-.969-.35,1.283,1.283,0,0,1-.453-.941,7.039,7.039,0,0,1-.058-2.588l.005-.029.007-.028a1.508,1.508,0,0,1,.509-.794,1.458,1.458,0,0,1,.94-.341h.644a8.221,8.221,0,0,1,.7-1.229l-.325-.569-.007-.015a1.616,1.616,0,0,1-.162-.919,1.321,1.321,0,0,1,.254-.627h-.423l-.007-8.81-4.4-4.4-4.4,4.4v2.939H685v20.549h26.421v-1.472C711.322,1213.067,711.23,1213.126,711.128,1213.166Zm-20.4-1.607H687.79v-2.936h2.936Zm0-5.871H687.79v-2.936h2.936Zm0-5.871H687.79v-2.936h2.936Zm8.807,11.74H696.6v-2.936h2.932Zm0-5.87H696.6v-2.937h2.932Zm0-5.872H696.6v-2.935h2.932Zm0-5.87-2.932,0v-2.936h2.932Z" fill="#0e6bb1"/>
    <path id="Path_2330" data-name="Path 2330" d="M715.53,1204.471a.587.587,0,0,0-.228-.458.826.826,0,0,0-.555-.2H713.7a7.639,7.639,0,0,0-1.045-1.828l.522-.914a.968.968,0,0,0,.1-.555.692.692,0,0,0-.294-.49,6.169,6.169,0,0,0-2.089-1.176.747.747,0,0,0-.979.326l-.522.979a5.592,5.592,0,0,0-2.088,0l-.522-.979a.748.748,0,0,0-.979-.326,8.128,8.128,0,0,0-2.089,1.176.692.692,0,0,0-.294.49.975.975,0,0,0,.1.555l.522.914a7.674,7.674,0,0,0-1.045,1.828H701.95a.828.828,0,0,0-.555.2.874.874,0,0,0-.293.459,6.433,6.433,0,0,0,.065,2.415.658.658,0,0,0,.228.522.824.824,0,0,0,.555.2h1.045a6.521,6.521,0,0,0,1.045,1.763l-.522.914a.979.979,0,0,0-.1.555.692.692,0,0,0,.294.49,7.161,7.161,0,0,0,2.089,1.24.97.97,0,0,0,.554-.033.7.7,0,0,0,.423-.359l.527-.915a5.6,5.6,0,0,0,2.089,0l.522.915a.7.7,0,0,0,.424.358.974.974,0,0,0,.555.033,7.179,7.179,0,0,0,2.085-1.24.692.692,0,0,0,.294-.49.968.968,0,0,0-.1-.555l-.522-.914a6.5,6.5,0,0,0,1.045-1.763h1.045a.826.826,0,0,0,.555-.2.652.652,0,0,0,.228-.522A5.653,5.653,0,0,0,715.53,1204.471ZM710.6,1206.4a2.2,2.2,0,0,1-1.567,1.567,2.547,2.547,0,0,1-2.384-.555h.005a2.548,2.548,0,0,1-.555-2.382,2.281,2.281,0,0,1,1.562-1.6,2.474,2.474,0,0,1,2.383.522A2.7,2.7,0,0,1,710.6,1206.4Z" fill="#e3000e"/>
  </g>
</svg>
