<svg xmlns="http://www.w3.org/2000/svg" width="52" height="21.736" viewBox="0 0 52 21.736">
  <g id="Group_1778" data-name="Group 1778" transform="translate(-675.687 -1016.143)">
    <path id="Path_2307" data-name="Path 2307" d="M687.365,1023.22a5.726,5.726,0,0,1,2.285.446l.572-2.16a7.489,7.489,0,0,0-2.964-.517c-3.642,0-6.569,2.267-6.569,6.354,0,3.427,2.142,6.033,6.3,6.033a8,8,0,0,0,3.07-.517l-.393-2.143a6.475,6.475,0,0,1-2.285.393,3.947,3.947,0,0,1-.018-7.89Z" fill="#0e6bb1"/>
    <path id="Path_2308" data-name="Path 2308" d="M697.628,1023.291a6.313,6.313,0,0,1,2.785.517l.571-2.2a8.709,8.709,0,0,0-3.338-.571c-3.945,0-6.854,2.285-6.873,6.283a6.031,6.031,0,0,0,1.7,4.391,6.775,6.775,0,0,0,4.891,1.606,13.478,13.478,0,0,0,4.016-.678V1026.3H696.9v2.124h1.856v2.535a4.155,4.155,0,0,1-1.321.161,3.919,3.919,0,1,1,.2-7.836Z" fill="#0e6bb1"/>
    <path id="Path_2309" data-name="Path 2309" d="M711.836,1021.167h-9.247v2.285h3.249v14.422h2.713v-14.422h3.284Z" fill="#0e6bb1"/>
    <path id="Path_2310" data-name="Path 2310" d="M727.687,1017.043v-.9h-52v21.736H704.57v-2.718H678.4v-16.31h46.573v16.31H709.985v2.713h17.7v-.2h0v-20.631Z" fill="#0e6bb1"/>
    <g id="Group_1777" data-name="Group 1777">
      <path id="Path_2311" data-name="Path 2311" d="M718.653,1024.155h-.038l-2.4,1.07-.544-2.517,3.476-1.541h2.78v12.212h-3.269Z" fill="#e3000e"/>
    </g>
  </g>
</svg>
