<svg xmlns="http://www.w3.org/2000/svg" width="52" height="21.736" viewBox="0 0 52 21.736">
  <g id="Group_1780" data-name="Group 1780" transform="translate(-675.687 -1045.571)">
    <path id="Path_2312" data-name="Path 2312" d="M687.365,1052.649a5.725,5.725,0,0,1,2.285.445l.572-2.159a7.471,7.471,0,0,0-2.964-.518c-3.642,0-6.569,2.268-6.569,6.355,0,3.427,2.142,6.033,6.3,6.033a8.005,8.005,0,0,0,3.07-.518l-.393-2.143a6.453,6.453,0,0,1-2.285.393,3.947,3.947,0,0,1-.018-7.89Z" fill="#0e6bb1"/>
    <path id="Path_2313" data-name="Path 2313" d="M697.628,1052.719a6.326,6.326,0,0,1,2.785.518l.571-2.2a8.673,8.673,0,0,0-3.338-.571c-3.945,0-6.854,2.285-6.873,6.283a6.032,6.032,0,0,0,1.7,4.391,6.783,6.783,0,0,0,4.891,1.606,13.478,13.478,0,0,0,4.016-.678v-6.337H696.9v2.124h1.856v2.535a4.183,4.183,0,0,1-1.321.161,3.919,3.919,0,0,1,.2-7.836Z" fill="#0e6bb1"/>
    <path id="Path_2314" data-name="Path 2314" d="M711.836,1050.6h-9.247v2.285h3.249V1067.3h2.713V1052.88h3.284Z" fill="#0e6bb1"/>
    <path id="Path_2315" data-name="Path 2315" d="M727.687,1046.471v-.9h-52v21.736H704.57v-2.718H678.4v-16.31h46.573v16.31H709.985v2.713h17.7v-.2h0v-20.631Z" fill="#0e6bb1"/>
    <g id="Group_1779" data-name="Group 1779">
      <path id="Path_2316" data-name="Path 2316" d="M713.774,1062.808v-1.947l1.607-1.412c2.358-2.054,3.555-3.251,3.572-4.448,0-.839-.553-1.429-1.732-1.429a4.5,4.5,0,0,0-2.483.93l-.876-2.3a7.113,7.113,0,0,1,4.02-1.2c2.7,0,4.287,1.465,4.287,3.752,0,1.858-1.321,3.358-2.7,4.465l-1.143.911v.036h4.055v2.644Z" fill="#e3000e"/>
    </g>
  </g>
</svg>
