<svg xmlns="http://www.w3.org/2000/svg" width="27.142" height="24.155" viewBox="0 0 27.142 24.155">
  <g id="Group_1782" data-name="Group 1782" transform="translate(-738.272 -1187.739)">
    <g id="Group_1781" data-name="Group 1781">
      <path id="Path_2317" data-name="Path 2317" d="M751.843,1206.224a12.824,12.824,0,0,1-6.573-1.744,13.1,13.1,0,0,1-4.736-4.665,13.036,13.036,0,0,1,4.147-4.335l-1.273-1.834a15.05,15.05,0,0,0-4.806,5.038,2.1,2.1,0,0,0,0,2.262,15.362,15.362,0,0,0,13.243,7.54q.944,0,1.885-.094l-1.508-2.168Z" fill="#0e6bb1"/>
      <path id="Path_2318" data-name="Path 2318" d="M745.764,1200.381a6.514,6.514,0,0,0,2.05,2.922,6.091,6.091,0,0,0,3.322,1.366l-5.514-7.87A6.056,6.056,0,0,0,745.764,1200.381Z" fill="#0e6bb1"/>
      <path id="Path_2319" data-name="Path 2319" d="M765.084,1198.684a15.355,15.355,0,0,0-13.241-7.538,16.032,16.032,0,0,0-4.241.565l8.163,11.675a6.2,6.2,0,0,0,2.345-3.76,6.262,6.262,0,0,0-.613-4.335,2.638,2.638,0,0,1-5.275,0,2.5,2.5,0,0,1,.754-1.838,13.186,13.186,0,0,1,10.176,6.362,12.292,12.292,0,0,1-2.615,3.157,13.821,13.821,0,0,1-3.514,2.214l2.189,3.132h0l-.866-1.246a15.386,15.386,0,0,0,3.84-2.545,14.874,14.874,0,0,0,2.9-3.581,2.1,2.1,0,0,0,0-2.262Z" fill="#0e6bb1"/>
    </g>
    <path id="Path_2320" data-name="Path 2320" d="M757.023,1205.186h0l-1.268-1.791.011-.01-8.163-11.675-2.639-3.723a.439.439,0,0,0-.33-.236.509.509,0,0,0-.424.094l-.99.707a.6.6,0,0,0-.236.353.477.477,0,0,0,.094.4l15.645,22.34a.447.447,0,0,0,.33.236.51.51,0,0,0,.424-.094l.99-.707a.6.6,0,0,0,.236-.353.469.469,0,0,0-.094-.4l-1.4-2.01h0Z" fill="#e3000e"/>
  </g>
</svg>
