<svg xmlns="http://www.w3.org/2000/svg" xmlns:xlink="http://www.w3.org/1999/xlink" width="466" height="284" viewBox="0 0 466 284">
  <defs>
    <clipPath id="clip-Disbursement">
      <rect width="466" height="284"/>
    </clipPath>
  </defs>
  <g id="Disbursement" clip-path="url(#clip-Disbursement)">
    <g id="Group_17" data-name="Group 17">
      <g id="Rectangle_1" data-name="Rectangle 1" transform="translate(117 91)" fill="#e3000e" stroke="#707070" stroke-width="1">
        <rect width="143" height="173" stroke="none"/>
        <rect x="0.5" y="0.5" width="142" height="172" fill="none"/>
      </g>
      <g id="money" transform="translate(0 -91.208)">
        <g id="Group_16" data-name="Group 16">
          <path id="Path_12" data-name="Path 12" d="M464.8,309.008a9.873,9.873,0,0,0-13.8-2.7l-74.6,48.9H278.2v-41H379.4a9.912,9.912,0,0,0,5.8-2l77-55.6a9.951,9.951,0,1,0-11.7-16.1l-74.3,53.7h-98v-42H379.4a9.9,9.9,0,0,0,6.2-1.9l77-60.7a10.043,10.043,0,0,0-12.4-15.8l-74.3,58.4H278.2v-40H379.4a10.652,10.652,0,0,0,6.8-2.8l77-71.4a10.387,10.387,0,0,0,2.5-11.2,10.279,10.279,0,0,0-9.3-6.6H361c-.1,0-.3-1.8-.6-2.6a10.09,10.09,0,0,0-9.3-6.4h-153a10.051,10.051,0,0,0-6.8,2.7l-6.7,6.3H87a10.254,10.254,0,0,0-6.8,2.9l-77,71.3a10.387,10.387,0,0,0-2.5,11.2,10.279,10.279,0,0,0,9.3,6.6h95.2v40H10a10,10,0,0,0,0,20h95.2v42H10a10,10,0,0,0,0,20h95.2v41H10a10,10,0,0,0,0,20H379.4a9.864,9.864,0,0,0,5.5-1.9l77-50.4A10.11,10.11,0,0,0,464.8,309.008Zm-119.3-188.4c.1,0,.2-.4.4-.4h85l-55.4,52H290.4ZM108,172.208H35.5l55.4-52h72.2l-54.6,51.2C108.3,171.507,108.2,171.208,108,172.208Zm112.3,59.1h13.5a10,10,0,0,1,0,20H220.3a46.548,46.548,0,0,1-11.6,20.6,43.323,43.323,0,0,1-28.3,12.5l37.9,35.8.1.1a9.972,9.972,0,1,1-13.8,14.4l-56.1-53.1a10.323,10.323,0,0,1-3.1-7.2,10.072,10.072,0,0,1,10-10.2h22.5a23.316,23.316,0,0,0,16.8-6.6,32.97,32.97,0,0,0,4.7-6.4H155.5a10,10,0,0,1,0-20h43.9c-3.8-9-11.9-14-21.4-14H155.5a10,10,0,0,1,0-20h78.4a10.029,10.029,0,0,1,10,10,10.2,10.2,0,0,1-10.1,10.1H214.5A44.176,44.176,0,0,1,220.3,231.307Z" fill="#0e6bb1"/>
        </g>
      </g>
    </g>
  </g>
</svg>
