<svg xmlns="http://www.w3.org/2000/svg" width="35.488" height="26.236" viewBox="0 0 35.488 26.236">
  <g id="Group_1776" data-name="Group 1776" transform="translate(-681.037 -976.023)">
    <path id="Path_2182" data-name="Path 2182" d="M707.788,976.023a8.61,8.61,0,1,1-.141,0Zm-5.678,7.447v2.564h4.512v4.308h2.505v-4.386h4.39v-2.465h-4.469V979.02h-2.473v4.451Z" fill="#e3000e"/>
    <path id="Path_2183" data-name="Path 2183" d="M696.51,1002.24c-2.271,0-4.543-.037-6.813.018-.865.021-1.208-.225-1.285-1.123a8.182,8.182,0,0,1,6.848-8.9,8.091,8.091,0,0,1,9.107,6.878c.514,3.129.514,3.129-2.592,3.129Z" fill="#0e6bb1"/>
    <path id="Path_2184" data-name="Path 2184" d="M699.342,989.84a5.13,5.13,0,0,1-7.1-7.206,4.946,4.946,0,0,1,6.065-1.7A9.993,9.993,0,0,0,699.342,989.84Z" fill="#0e6bb1"/>
    <path id="Path_2185" data-name="Path 2185" d="M712.372,1002.219c-2.135,0-4.154.016-6.173-.026-.19,0-.5-.357-.539-.586-.329-1.858-.6-3.726-.907-5.588-.092-.554.1-.8.646-.936a4.848,4.848,0,0,1,5.1,1.633A7.993,7.993,0,0,1,712.372,1002.219Z" fill="#0e6bb1"/>
    <path id="Path_2186" data-name="Path 2186" d="M686.588,987.463a3.5,3.5,0,1,1-3.507,3.493v-.067A3.47,3.47,0,0,1,686.588,987.463Z" fill="#0e6bb1"/>
    <path id="Path_2187" data-name="Path 2187" d="M687.781,996.131c-.287,1.887-.535,3.682-.861,5.464a.989.989,0,0,1-.736.58c-1.439.057-2.882,0-4.322.038-.608.015-.795-.3-.82-.8a5.182,5.182,0,0,1,2.252-4.5A4.2,4.2,0,0,1,687.781,996.131Z" fill="#0e6bb1"/>
  </g>
</svg>
