<svg xmlns="http://www.w3.org/2000/svg" width="33.007" height="26.318" viewBox="0 0 33.007 26.318">
  <g id="Group_1783" data-name="Group 1783" transform="translate(-682.665 -1076.022)">
    <path id="Path_2321" data-name="Path 2321" d="M715.566,1080.515a.463.463,0,0,0-.181-.361.646.646,0,0,0-.437-.155h-.826a6.037,6.037,0,0,0-.824-1.443l.412-.722a.761.761,0,0,0,.076-.438.545.545,0,0,0-.231-.387,4.892,4.892,0,0,0-1.649-.928.591.591,0,0,0-.773.257l-.412.773a4.443,4.443,0,0,0-1.649,0l-.412-.773a.591.591,0,0,0-.773-.257,6.392,6.392,0,0,0-1.649.928.547.547,0,0,0-.233.387.77.77,0,0,0,.078.438l.412.722a6.044,6.044,0,0,0-.826,1.443h-.824a.651.651,0,0,0-.439.155.7.7,0,0,0-.232.362,5.076,5.076,0,0,0,.053,1.907.513.513,0,0,0,.179.412.651.651,0,0,0,.439.155h.824a5.13,5.13,0,0,0,.826,1.392l-.412.722a.773.773,0,0,0-.078.438.544.544,0,0,0,.233.387,5.641,5.641,0,0,0,1.649.979.769.769,0,0,0,.438-.026.553.553,0,0,0,.334-.284l.416-.722a4.437,4.437,0,0,0,1.649,0l.411.722a.553.553,0,0,0,.336.283.768.768,0,0,0,.438.026,5.676,5.676,0,0,0,1.646-.979.541.541,0,0,0,.231-.387.763.763,0,0,0-.076-.438l-.412-.722a5.124,5.124,0,0,0,.824-1.392h.826a.646.646,0,0,0,.437-.155.515.515,0,0,0,.181-.412A4.475,4.475,0,0,0,715.566,1080.515Zm-3.892,1.521a1.729,1.729,0,0,1-1.237,1.237,2.01,2.01,0,0,1-1.881-.438h0a2.012,2.012,0,0,1-.438-1.881,1.8,1.8,0,0,1,1.232-1.263,1.958,1.958,0,0,1,1.882.412A2.13,2.13,0,0,1,711.674,1082.036Z" fill="#e3000e"/>
    <path id="Path_2322" data-name="Path 2322" d="M704.9,1092.3a1.107,1.107,0,0,0-.566-.644l-1.757-.88a8.632,8.632,0,0,0,0-3.244l1.755-.879a1.211,1.211,0,0,0,.541-.67,1.242,1.242,0,0,0-.026-.825,11.88,11.88,0,0,0-2.165-3.4,1.255,1.255,0,0,0-.748-.438,1.016,1.016,0,0,0-.8.18l-1.495.825a10.066,10.066,0,0,0-2.835-1.6v-1.751a1.14,1.14,0,0,0-.309-.8,1.457,1.457,0,0,0-.719-.442,11.55,11.55,0,0,0-3.917.052,1.1,1.1,0,0,0-.747.387,1.194,1.194,0,0,0-.283.8v1.752a8.6,8.6,0,0,0-2.836,1.6l-1.495-.825a1.173,1.173,0,0,0-.849-.18,1.048,1.048,0,0,0-.7.438,12.816,12.816,0,0,0-2.165,3.4.989.989,0,0,0-.052.825,1.329,1.329,0,0,0,.567.67l1.7.876a8.608,8.608,0,0,0,0,3.247l-1.7.876a1.106,1.106,0,0,0-.567.644,1.046,1.046,0,0,0,.052.85,12.816,12.816,0,0,0,2.165,3.4,1.127,1.127,0,0,0,.7.387,1.329,1.329,0,0,0,.849-.129l1.495-.87a8.647,8.647,0,0,0,2.834,1.648v1.752a1.219,1.219,0,0,0,.283.773,1.059,1.059,0,0,0,.747.412,10.7,10.7,0,0,0,3.917,0,1.118,1.118,0,0,0,.722-.412,1.173,1.173,0,0,0,.31-.773v-1.752a9.418,9.418,0,0,0,2.835-1.648l1.495.876a1.155,1.155,0,0,0,.8.129,1.372,1.372,0,0,0,.747-.387,12.164,12.164,0,0,0,2.164-3.4A1.046,1.046,0,0,0,704.9,1092.3Zm-8.351-.441a4.412,4.412,0,0,1-2.99.979,3.616,3.616,0,0,1-3.453-3.453,4.228,4.228,0,0,1,.979-2.938,4.129,4.129,0,0,1,2.939-1.031,3.631,3.631,0,0,1,2.422,1.108,3.732,3.732,0,0,1,1.082,2.4A4.23,4.23,0,0,1,696.547,1091.855Z" fill="#0e6bb1"/>
    <path id="Path_2323" data-name="Path 2323" d="M715.569,1095.925a.466.466,0,0,0-.18-.361.65.65,0,0,0-.438-.155h-.825a6.074,6.074,0,0,0-.825-1.443l.412-.722a.778.778,0,0,0,.077-.438.548.548,0,0,0-.233-.387,4.88,4.88,0,0,0-1.648-.928.592.592,0,0,0-.774.258l-.414.779a5.35,5.35,0,0,0-1.646-.055l-.412-.722a.591.591,0,0,0-.773-.258,4.872,4.872,0,0,0-1.649.928.543.543,0,0,0-.232.387.764.764,0,0,0,.077.438l.411.722a6.039,6.039,0,0,0-.824,1.443h-.828a.651.651,0,0,0-.439.155.7.7,0,0,0-.232.362,5.077,5.077,0,0,0,.053,1.907.513.513,0,0,0,.179.412.651.651,0,0,0,.439.155h.824a5.13,5.13,0,0,0,.826,1.392l-.412.722a.772.772,0,0,0-.078.438.544.544,0,0,0,.233.387,5.641,5.641,0,0,0,1.649.979.769.769,0,0,0,.438-.026.553.553,0,0,0,.335-.283l.415-.725a4.437,4.437,0,0,0,1.649,0l.411.722a.553.553,0,0,0,.336.283.769.769,0,0,0,.438.026,5.651,5.651,0,0,0,1.648-.979.544.544,0,0,0,.233-.387.78.78,0,0,0-.077-.438l-.412-.722a5.151,5.151,0,0,0,.825-1.392h.825a.65.65,0,0,0,.438-.155.518.518,0,0,0,.18-.412A4.475,4.475,0,0,0,715.569,1095.925Zm-3.895,1.5a1.793,1.793,0,0,1-1.237,1.237,1.953,1.953,0,0,1-1.881-.412h0a2.012,2.012,0,0,1-.438-1.881,1.8,1.8,0,0,1,1.232-1.262,1.958,1.958,0,0,1,1.882.412A2.1,2.1,0,0,1,711.674,1097.421Z" fill="#0e6bb1"/>
  </g>
</svg>
