<svg xmlns="http://www.w3.org/2000/svg" width="33.5" height="20.209" viewBox="0 0 33.5 20.209">
  <g id="Group_54" data-name="Group 54" transform="translate(-680.781 -1160.072)">
    <path id="Path_2205" data-name="Path 2205" d="M688.733,1176.238H685.2v-15.87h-4.417v19.591h10.7A7.791,7.791,0,0,1,688.733,1176.238Z" fill="#0e6bb1"/>
    <path id="Path_2206" data-name="Path 2206" d="M699,1176.166a3.351,3.351,0,0,1-1.952.566c-2.237,0-3.545-1.714-3.545-5.117v-11.246H689.09V1171.3c0,6.22,2.876,8.98,7.817,8.98a8.9,8.9,0,0,0,4.669-1.149A9.521,9.521,0,0,1,699,1176.166Z" fill="#e3000e"/>
    <path id="Path_2207" data-name="Path 2207" d="M709.659,1176.556c-3.923,0-6.249-2.469-6.249-6.365,0-4.357,2.733-6.481,6.22-6.481a9.337,9.337,0,0,1,3.721.728l.93-3.516a12.166,12.166,0,0,0-4.824-.845c-5.929,0-10.7,3.694-10.7,10.348,0,5.58,3.489,9.823,10.261,9.823a12.953,12.953,0,0,0,5-.843l-.64-3.487A10.526,10.526,0,0,1,709.659,1176.556Z" fill="#0e6bb1"/>
  </g>
</svg>
