<svg xmlns="http://www.w3.org/2000/svg" width="38" height="26.6" viewBox="0 0 38 26.6">
  <g id="Group_1775" data-name="Group 1775" transform="translate(-681.136 -940.279)">
    <path id="Path_2301" data-name="Path 2301" d="M686.836,951.679a3.847,3.847,0,1,1,2.672-1.125A3.66,3.66,0,0,1,686.836,951.679Z" fill="#0e6bb1"/>
    <path id="Path_2302" data-name="Path 2302" d="M713.436,951.679a3.847,3.847,0,1,1,2.672-1.125A3.66,3.66,0,0,1,713.436,951.679Z" fill="#0e6bb1"/>
    <path id="Path_2303" data-name="Path 2303" d="M715.336,953.579a3.852,3.852,0,0,1,3.8,3.8v1.9a1.926,1.926,0,0,1-1.9,1.9h-3.919a8.785,8.785,0,0,0-1.481-3.8,8.312,8.312,0,0,0-2.969-2.672,3.65,3.65,0,0,1,2.669-1.128Z" fill="#0e6bb1"/>
    <path id="Path_2304" data-name="Path 2304" d="M700.136,953.579a6.65,6.65,0,1,1,3.325-.891A6.549,6.549,0,0,1,700.136,953.579Z" fill="#e3000e"/>
    <path id="Path_2305" data-name="Path 2305" d="M704.708,955.479a6.63,6.63,0,0,1,3.414.92,6.841,6.841,0,0,1,2.494,2.494,6.63,6.63,0,0,1,.92,3.414v1.722a2.838,2.838,0,0,1-2.825,2.85H691.586a2.839,2.839,0,0,1-2.85-2.826v-1.746a6.649,6.649,0,0,1,.92-3.414,6.856,6.856,0,0,1,2.494-2.494,6.632,6.632,0,0,1,3.414-.92h.472a9.322,9.322,0,0,0,8.2,0Z" fill="#e3000e"/>
    <path id="Path_2306" data-name="Path 2306" d="M691.408,954.707a8.338,8.338,0,0,0-2.972,2.672,8.814,8.814,0,0,0-1.484,3.8h-3.916a1.926,1.926,0,0,1-1.9-1.9v-1.9a3.852,3.852,0,0,1,3.8-3.8h3.8A3.649,3.649,0,0,1,691.408,954.707Z" fill="#0e6bb1"/>
  </g>
</svg>
