<svg xmlns="http://www.w3.org/2000/svg" xmlns:xlink="http://www.w3.org/1999/xlink" width="458" height="512" viewBox="0 0 458 512">
  <defs>
    <clipPath id="clip-Send_To_Hub">
      <rect width="458" height="512"/>
    </clipPath>
  </defs>
  <g id="Send_To_Hub" data-name="Send To Hub" clip-path="url(#clip-Send_To_Hub)">
    <g id="file" transform="translate(-26.518)">
      <g id="Group_14" data-name="Group 14" transform="translate(7)">
        <g id="Group_13" data-name="Group 13">
          <g id="Group_12" data-name="Group 12">
            <path id="Path_4" data-name="Path 4" d="M474.371,368.318,379.153,282.8a10.887,10.887,0,0,0-18.161,8.1v37.167c-137.634,7.372-169.4,118.4-176.734,169.255a6.265,6.265,0,0,0,11.226,4.64,185.111,185.111,0,0,1,147.682-73.505h17.826v33.478a10.886,10.886,0,0,0,18.161,8.1l95.217-85.518a10.884,10.884,0,0,0,0-16.2Z" fill="#e3000e"/>
            <path id="Path_5" data-name="Path 5" d="M343.166,370.468a185.1,185.1,0,0,0-142.645,67.165,248.58,248.58,0,0,0-16.263,59.689,6.265,6.265,0,0,0,11.226,4.64,185.114,185.114,0,0,1,147.682-73.505h17.826v33.478a10.886,10.886,0,0,0,18.161,8.1l95.217-85.518a10.883,10.883,0,0,0,1.83-14.049H343.166Z" fill="#e3000e"/>
          </g>
        </g>
      </g>
      <g id="Group_15" data-name="Group 15">
        <path id="Path_6" data-name="Path 6" d="M82.055,82.516H233.064a7.5,7.5,0,1,0,0-15H82.055a7.5,7.5,0,0,0,0,15Z" fill="#0e6bb1"/>
        <path id="Path_7" data-name="Path 7" d="M82.055,131.853H233.064a7.5,7.5,0,0,0,0-15H82.055a7.5,7.5,0,0,0,0,15Z" fill="#0e6bb1"/>
        <path id="Path_8" data-name="Path 8" d="M384.452,222a7.5,7.5,0,0,0-7.5-7.5H82.055a7.5,7.5,0,0,0,0,15h294.9A7.5,7.5,0,0,0,384.452,222Z" fill="#0e6bb1"/>
        <path id="Path_9" data-name="Path 9" d="M315.74,289.634a7.5,7.5,0,0,0-7.5-7.5H82.055a7.5,7.5,0,0,0,0,15H308.24A7.5,7.5,0,0,0,315.74,289.634Z" fill="#0e6bb1"/>
        <path id="Path_10" data-name="Path 10" d="M82.055,349.766a7.5,7.5,0,0,0,0,15H207.839a7.5,7.5,0,0,0,0-15Z" fill="#0e6bb1"/>
        <path id="Path_11" data-name="Path 11" d="M479.384,362.738s0,0,0,0l-95.219-85.519a18.387,18.387,0,0,0-30.672,13.68v30.153C215.419,332.2,183.957,446.84,176.836,496.251q-.054.375-.088.749H60.49a18.994,18.994,0,0,1-18.973-18.973V33.973A19,19,0,0,1,60.49,15H300.74v89.247a27.534,27.534,0,0,0,27.5,27.5H417.49V289.7a7.5,7.5,0,0,0,15,0V124.25a7.506,7.506,0,0,0-2.2-5.3L313.544,2.2a7.5,7.5,0,0,0-5.3-2.2H60.49A34.011,34.011,0,0,0,26.518,33.973V478.028A34.011,34.011,0,0,0,60.49,512H398.517a34.012,34.012,0,0,0,33.973-33.973V462.543a7.5,7.5,0,0,0-15,0v15.484A18.994,18.994,0,0,1,398.517,497H209.167a177.576,177.576,0,0,1,134-61.043h10.326v25.978a18.387,18.387,0,0,0,30.672,13.68L479.382,390.1a18.391,18.391,0,0,0,0-27.358ZM315.74,104.247V25.606l91.144,91.144H328.243A12.517,12.517,0,0,1,315.74,104.247Zm153.619,274.69-95.218,85.518a3.387,3.387,0,0,1-5.65-2.52V428.457a7.5,7.5,0,0,0-7.5-7.5H343.165A192.613,192.613,0,0,0,192.4,493.7c4.232-25.939,14.166-61.632,37.376-92.831,29.951-40.263,74.232-62.236,131.614-65.31a7.5,7.5,0,0,0,7.1-7.489V290.9a3.237,3.237,0,0,1,2.008-3.093,3.585,3.585,0,0,1,1.444-.32,3.217,3.217,0,0,1,2.2.894L469.358,373.9a3.388,3.388,0,0,1,0,5.04Z" fill="#0e6bb1"/>
      </g>
    </g>
  </g>
</svg>
